<svg width="78" height="81" viewBox="0 0 78 81" fill="none" xmlns="http://www.w3.org/2000/svg">
<g filter="url(#filter0_d_1_134)">
<path d="M56.1202 34.2769L45.7665 22.3926C44.4232 20.8508 42.4784 19.9658 40.4335 19.9658C37.6376 19.9658 35.1041 21.6127 33.9693 24.168L20.3504 54.8336C19.0552 57.7501 21.1901 61.0342 24.3813 61.0342C26.1379 61.0342 27.7271 59.9918 28.4268 58.3805L39.5732 32.7131C40.1476 31.3904 41.8961 31.1021 42.8647 32.1703L49.8382 39.8607C51.8531 42.0827 55.4802 41.5393 56.7554 38.8243C57.4636 37.3166 57.2145 35.5329 56.1202 34.2769Z" fill="url(#paint0_linear_1_134)"/>
<path d="M56.1202 34.2769L45.7665 22.3926C44.4232 20.8508 42.4784 19.9658 40.4335 19.9658C37.6376 19.9658 35.1041 21.6127 33.9693 24.168L20.3504 54.8336C19.0552 57.7501 21.1901 61.0342 24.3813 61.0342C26.1379 61.0342 27.7271 59.9918 28.4268 58.3805L39.5732 32.7131C40.1476 31.3904 41.8961 31.1021 42.8647 32.1703L49.8382 39.8607C51.8531 42.0827 55.4802 41.5393 56.7554 38.8243C57.4636 37.3166 57.2145 35.5329 56.1202 34.2769Z" stroke="black"/>
</g>
<defs>
<filter id="filter0_d_1_134" x="0.000101178" y="-2.09991e-05" width="77.12" height="81" filterUnits="userSpaceOnUse" color-interpolation-filters="sRGB">
<feFlood flood-opacity="0" result="BackgroundImageFix"/>
<feColorMatrix in="SourceAlpha" type="matrix" values="0 0 0 0 0 0 0 0 0 0 0 0 0 0 0 0 0 0 127 0" result="hardAlpha"/>
<feOffset/>
<feGaussianBlur stdDeviation="9.97419"/>
<feComposite in2="hardAlpha" operator="out"/>
<feColorMatrix type="matrix" values="0 0 0 0 1 0 0 0 0 0.308333 0 0 0 0 0.640333 0 0 0 0.25 0"/>
<feBlend mode="normal" in2="BackgroundImageFix" result="effect1_dropShadow_1_134"/>
<feBlend mode="normal" in="SourceGraphic" in2="effect1_dropShadow_1_134" result="shape"/>
</filter>
<linearGradient id="paint0_linear_1_134" x1="37.7586" y1="19.9658" x2="37.7586" y2="61.0342" gradientUnits="userSpaceOnUse">
<stop stop-color="white"/>
<stop offset="1" stop-color="#8D8D8D"/>
</linearGradient>
</defs>
</svg>
